# xmcd
#
# Track frame offsets:
#	150
#	14787
#	31597
#	52155
#	70103
#	84776
#	99133
#	117739
#	134297
#	156196
#	174139
#	189569
#	202919
#
# Disc length: 2921 seconds
#
# Revision: 1
# Processed by: cddbd v1.5.2PL0 Copyright (c) Steve Scherf et al.
# Submitted via: CDmax 2.0
#
DISCID=a20b670d
DTITLE=Tony Furtado - Thirteen
DYEAR=2006
DGENRE=Americana
TTITLE0=Used
TTITLE1=California flood
TTITLE2=Won't get fooled again
TTITLE3=Thirteen below
TTITLE4=Hurtin' in my right side
TTITLE5=Sevens
TTITLE6=Another man
TTITLE7=I wait for this
TTITLE8=Fortunate son
TTITLE9=The alcohol
TTITLE10=Take me to the pilot
TTITLE11=Stay awhile
TTITLE12=Long journey home
EXTD=
EXTT0=
EXTT1=
EXTT2=
EXTT3=
EXTT4=
EXTT5=
EXTT6=
EXTT7=
EXTT8=
EXTT9=
EXTT10=
EXTT11=
EXTT12=
PLAYORDER=
